# Blender v3.0.0 OBJ File: 'üçgen.blend'
# www.blender.org
mtllib üçgen.mtl
o Cube
v -1.000000 -1.000000 1.000000
v -1.000000 1.000000 1.000000
v -1.000000 -1.000000 -1.000000
v -1.000000 1.000000 -1.000000
v 1.000000 -1.000000 1.000000
v 1.000000 1.000000 1.000000
v 1.000000 -1.000000 -1.000000
v 1.000000 1.000000 -1.000000
v 0.000000 -1.000000 -0.899997
v 0.900000 -1.000000 1.000000
v -0.900000 -1.000000 1.000000
v 0.000000 1.000000 -0.899997
v -0.900000 1.000000 1.000000
v 0.900000 1.000000 1.000000
vt 0.375000 0.000000
vt 0.625000 0.000000
vt 0.625000 0.250000
vt 0.375000 0.250000
vt 0.625000 0.500000
vt 0.375000 0.500000
vt 0.625000 0.750000
vt 0.375000 0.750000
vt 0.625000 0.987500
vt 0.625000 1.000000
vt 0.375000 1.000000
vt 0.375000 0.987500
vt 0.375000 0.762500
vt 0.625000 0.762500
vt 0.125000 0.750000
vt 0.125000 0.500000
vt 0.362500 0.750000
vt 0.250000 0.512500
vt 0.137500 0.750000
vt 0.637500 0.750000
vt 0.875000 0.500000
vt 0.875000 0.750000
vt 0.862500 0.750000
vt 0.750000 0.512500
vt 0.000000 0.000000
vt 0.000000 0.000000
vt 0.000000 0.000000
vt 0.000000 0.000000
vt 0.000000 0.000000
vt 0.000000 0.000000
vn -1.0000 0.0000 0.0000
vn 0.0000 0.0000 -1.0000
vn 1.0000 0.0000 0.0000
vn 0.0000 0.0000 1.0000
vn 0.0000 -1.0000 -0.0000
vn 0.0000 1.0000 0.0000
vn -0.9037 0.0000 0.4281
vn 0.9037 0.0000 0.4281
usemtl None
s off
f 1/1/1 2/2/1 4/3/1 3/4/1
f 3/4/2 4/3/2 8/5/2 7/6/2
f 7/6/3 8/5/3 6/7/3 5/8/3
f 13/9/4 2/10/4 1/11/4 11/12/4
f 10/13/4 5/8/4 6/7/4 14/14/4
f 1/15/5 3/16/5 7/6/5 5/8/5 10/17/5 9/18/5 11/19/5
f 14/20/6 6/7/6 8/5/6 4/21/6 2/22/6 13/23/6 12/24/6
f 9/25/7 10/26/7 14/27/7 12/28/7
f 11/29/8 9/25/8 12/28/8 13/30/8
